<svg width="500" height="500" viewBox="0 0 500 500" fill="none" xmlns="http://www.w3.org/2000/svg">
<path d="M500 255.329C500 389.534 378.094 493 244.703 493C111.313 493 0 454.014 0 319.809C0 185.604 152.626 7 286.017 7C419.408 7 500 121.124 500 255.329Z" fill="#0D0D0D"/>
<path d="M86.3965 374.53C89.3275 377.461 92.9913 378.926 97.3877 378.926C101.418 378.926 105.081 377.461 108.012 374.53C110.943 371.599 112.775 367.569 112.775 363.172C112.775 358.776 110.943 355.112 108.012 352.181C105.081 349.25 101.418 347.785 97.3877 347.785C92.9913 347.785 89.3275 349.25 86.3965 352.181C83.4656 355.112 82 358.776 82 363.172C82 367.569 83.4656 371.599 86.3965 374.53Z" fill="white" stroke="white" stroke-width="8" stroke-miterlimit="2"/>
<path d="M400.371 377.461H418.689L418.323 121H402.935L288.261 319.208L173.586 121H157.832V377.461H176.151V158.736L283.498 343.388H292.657L400.004 158.004L400.371 377.461Z" fill="white" stroke="white" stroke-width="8" stroke-miterlimit="2"/>
</svg>
